<svg width="12" height="12" viewBox="0 0 12 12" fill="none" xmlns="http://www.w3.org/2000/svg">
<path fill-rule="evenodd" clip-rule="evenodd" d="M6.64645 2.14645C6.84171 1.95118 7.15829 1.95118 7.35355 2.14645L10.8536 5.64645C10.9473 5.74022 11 5.86739 11 6C11 6.13261 10.9473 6.25979 10.8536 6.35355L7.35355 9.85355C7.15829 10.0488 6.84171 10.0488 6.64645 9.85355C6.45118 9.65829 6.45118 9.34171 6.64645 9.14645L9.29289 6.5L1.5 6.5C1.22386 6.5 1 6.27614 1 6C1 5.72386 1.22386 5.5 1.5 5.5L9.29289 5.5L6.64645 2.85355C6.45118 2.65829 6.45118 2.34171 6.64645 2.14645Z" fill="#888888"/>
</svg>
