<svg width="16" height="16" viewBox="0 0 16 16" fill="none" xmlns="http://www.w3.org/2000/svg">
<path fill-rule="evenodd" clip-rule="evenodd" d="M8.00004 2.66665C5.05452 2.66665 2.66671 5.05446 2.66671 7.99998C2.66671 10.9455 5.05452 13.3333 8.00004 13.3333C10.9456 13.3333 13.3334 10.9455 13.3334 7.99998C13.3334 5.05446 10.9456 2.66665 8.00004 2.66665ZM1.33337 7.99998C1.33337 4.31808 4.31814 1.33331 8.00004 1.33331C11.6819 1.33331 14.6667 4.31808 14.6667 7.99998C14.6667 11.6819 11.6819 14.6666 8.00004 14.6666C4.31814 14.6666 1.33337 11.6819 1.33337 7.99998ZM7.33337 5.33331C7.33337 4.96512 7.63185 4.66665 8.00004 4.66665H8.00671C8.3749 4.66665 8.67337 4.96512 8.67337 5.33331C8.67337 5.7015 8.3749 5.99998 8.00671 5.99998H8.00004C7.63185 5.99998 7.33337 5.7015 7.33337 5.33331ZM6.66671 7.99998C6.66671 7.63179 6.96518 7.33331 7.33337 7.33331H8.00004C8.36823 7.33331 8.66671 7.63179 8.66671 7.99998V9.99998C9.0349 9.99998 9.33337 10.2985 9.33337 10.6666C9.33337 11.0348 9.0349 11.3333 8.66671 11.3333H8.00004C7.63185 11.3333 7.33337 11.0348 7.33337 10.6666V8.66665C6.96518 8.66665 6.66671 8.36817 6.66671 7.99998Z" fill="#AAAAAA"/>
</svg>
