<svg width="16" height="16" viewBox="0 0 16 16" fill="none" xmlns="http://www.w3.org/2000/svg">
<path fill-rule="evenodd" clip-rule="evenodd" d="M1.64393 1.47926C1.46692 1.47926 1.29717 1.54454 1.172 1.66074C1.04684 1.77694 0.976526 1.93455 0.976526 2.09888V11.7553C0.976526 12.0057 0.757923 12.2086 0.488263 12.2086C0.218603 12.2086 0 12.0057 0 11.7553V2.09888C0 1.69409 0.1732 1.30589 0.481497 1.01966C0.789794 0.733432 1.20793 0.572632 1.64393 0.572632H12.0449C12.3146 0.572632 12.5332 0.775586 12.5332 1.02594C12.5332 1.2763 12.3146 1.47926 12.0449 1.47926H1.64393ZM4.53289 4.16147C4.16429 4.16147 3.86549 4.43889 3.86549 4.7811V13.9011C3.86549 14.2433 4.16429 14.5207 4.53289 14.5207H14.3561C14.7247 14.5207 15.0235 14.2433 15.0235 13.9011V4.7811C15.0235 4.43889 14.7247 4.16147 14.3561 4.16147H4.53289ZM2.88896 4.7811C2.88896 3.93817 3.62498 3.25485 4.53289 3.25485H14.3561C15.264 3.25485 16 3.93817 16 4.7811V13.9011C16 14.744 15.264 15.4273 14.3561 15.4273H4.53289C3.62498 15.4273 2.88896 14.744 2.88896 13.9011V4.7811Z" fill="#00804F"/>
</svg>
