<svg width="14" height="14" viewBox="0 0 14 14" fill="none" xmlns="http://www.w3.org/2000/svg">
<path d="M7 0.5C7.27608 0.5 7.4999 0.723939 7.5 1C7.5 1.27614 7.27614 1.5 7 1.5C5.57165 1.5 4.55029 1.50115 3.77441 1.60547C3.01321 1.70785 2.56331 1.90158 2.23242 2.23242C1.90147 2.56338 1.70785 3.01389 1.60547 3.77539C1.50121 4.55119 1.5 5.57198 1.5 7C1.5 8.42835 1.50115 9.4497 1.60547 10.2256C1.70785 10.9869 1.90155 11.4367 2.23242 11.7676C2.56332 12.0985 3.01317 12.2921 3.77441 12.3945C4.55029 12.4988 5.57165 12.5 7 12.5C8.42835 12.5 9.4497 12.4988 10.2256 12.3945C10.9868 12.2921 11.4367 12.0985 11.7676 11.7676C12.0984 11.4367 12.2922 10.9869 12.3945 10.2256C12.4988 9.4497 12.5 8.42835 12.5 7C12.5001 6.72394 12.7239 6.5 13 6.5C13.2761 6.5 13.4999 6.72394 13.5 7V7.03809C13.5 8.41999 13.5 9.5082 13.3857 10.3584C13.2685 11.2307 13.0223 11.9269 12.4746 12.4746C11.9269 13.0223 11.2308 13.2685 10.3584 13.3857C9.50819 13.5 8.42004 13.5 7.03809 13.5H6.96191C5.57996 13.5 4.49181 13.5 3.6416 13.3857C2.76922 13.2685 2.07311 13.0223 1.52539 12.4746C0.977729 11.9269 0.731541 11.2307 0.614258 10.3584C0.499977 9.5082 0.49999 8.41999 0.5 7.03809V6.96191C0.49999 5.58003 0.499955 4.49177 0.614258 3.6416C0.731554 2.76928 0.977693 2.07309 1.52539 1.52539C2.0731 0.977728 2.76926 0.731541 3.6416 0.614258C4.4918 0.499959 5.57998 0.49999 6.96191 0.5H7ZM10.3906 1.03418C11.102 0.322803 12.2554 0.322803 12.9668 1.03418C13.6777 1.74546 13.6777 2.8981 12.9668 3.60938L8.48926 8.08691C7.84367 8.73266 7.44867 9.12796 6.96289 9.39941C6.69193 9.55074 6.28074 9.68282 5.86035 9.7998C5.42776 9.92018 4.93019 10.0392 4.45508 10.1523L4.44922 10.1533C4.28031 10.1935 4.10227 10.1433 3.97949 10.0205C3.85678 9.89774 3.80647 9.71965 3.84668 9.55078L3.84863 9.54492C3.96174 9.06987 4.07984 8.57216 4.2002 8.13965C4.31723 7.71908 4.45015 7.30807 4.60156 7.03711C4.87301 6.55139 5.2674 6.15627 5.91309 5.51074C5.9307 5.49313 5.94881 5.47502 5.9668 5.45703L10.3906 1.03418ZM6.67383 6.16504C5.95798 6.88089 5.66926 7.17439 5.47363 7.52441C5.38781 7.678 5.28272 7.9809 5.16406 8.40723C5.11335 8.58947 5.06234 8.78532 5.01172 8.98828C5.21472 8.93765 5.4105 8.88666 5.59277 8.83594C6.01917 8.71727 6.32198 8.6122 6.47559 8.52637C6.82567 8.33073 7.11991 8.0422 7.83594 7.32617L10.9717 4.19043L9.80957 3.0293L6.67383 6.16504ZM12.2598 1.74121C11.9389 1.42036 11.4185 1.42036 11.0977 1.74121L10.5166 2.32129L11.6787 3.4834L12.2598 2.90234C12.5801 2.58159 12.5801 2.06197 12.2598 1.74121Z" fill="white"/>
</svg>
