<svg width="16" height="16" viewBox="0 0 16 16" fill="none" xmlns="http://www.w3.org/2000/svg">
<path fill-rule="evenodd" clip-rule="evenodd" d="M6.33337 2.66665C5.78109 2.66665 5.33337 3.11436 5.33337 3.66665C5.33337 4.21893 5.78109 4.66665 6.33337 4.66665H7.33337V3.66665C7.33337 3.11436 6.88566 2.66665 6.33337 2.66665ZM8.24183 2.32384C7.81949 1.72469 7.12214 1.33331 6.33337 1.33331C5.04471 1.33331 4.00004 2.37798 4.00004 3.66665C4.00004 4.02451 4.0806 4.36356 4.22458 4.66665L3.33337 4.66665C2.2288 4.66665 1.33337 5.56208 1.33337 6.66665C1.33337 7.53746 1.88991 8.27829 2.66671 8.55284L2.66671 12.6666C2.66671 13.7712 3.56214 14.6666 4.66671 14.6666L11.3334 14.6666C12.4379 14.6666 13.3334 13.7712 13.3334 12.6666L13.3334 8.55284C14.1102 8.27829 14.6667 7.53746 14.6667 6.66665C14.6667 5.56208 13.7713 4.66665 12.6667 4.66665L11.2196 4.66665C11.2933 4.45813 11.3334 4.23374 11.3334 3.99998C11.3334 2.89541 10.4379 1.99998 9.33337 1.99998C8.93063 1.99998 8.5557 2.11902 8.24183 2.32384ZM8.66671 3.99998V4.66663L9.33337 4.66665C9.70156 4.66665 10 4.36817 10 3.99998C10 3.63179 9.70156 3.33331 9.33337 3.33331C8.96518 3.33331 8.66671 3.63179 8.66671 3.99998ZM7.33337 5.99998L3.33337 5.99998C2.96518 5.99998 2.66671 6.29846 2.66671 6.66665C2.66671 7.03484 2.96518 7.33331 3.33337 7.33331L7.33337 7.33331L7.33337 5.99998ZM7.33337 8.66665L4.00004 8.66665L4.00004 12.6666C4.00004 13.0348 4.29852 13.3333 4.66671 13.3333L7.33337 13.3333L7.33337 8.66665ZM8.66671 13.3333L8.66671 8.66665L12 8.66665L12 12.6666C12 13.0348 11.7016 13.3333 11.3334 13.3333H8.66671ZM8.66671 7.33331L8.66671 5.99998L12.6667 5.99998C13.0349 5.99998 13.3334 6.29846 13.3334 6.66665C13.3334 7.03484 13.0349 7.33331 12.6667 7.33331L8.66671 7.33331Z" fill="white"/>
</svg>
