<svg width="80" height="12" viewBox="0 0 80 12" fill="none" xmlns="http://www.w3.org/2000/svg">
<path fill-rule="evenodd" clip-rule="evenodd" d="M46.1256 3.79395C45.5824 3.79395 44.8263 4.17785 44.613 4.77455H44.5704V3.87386H43.6329V9.09361H44.613V6.28713C44.613 5.3281 45.2951 4.76376 45.9658 4.76376C46.1791 4.76376 46.3497 4.78484 46.488 4.83829L46.8611 3.9224C46.6586 3.83709 46.4453 3.79395 46.1256 3.79395Z" fill="#AAAAAA"/>
<path fill-rule="evenodd" clip-rule="evenodd" d="M63.7852 1.34033H64.7653V9.0915H63.7852V1.34033Z" fill="#AAAAAA"/>
<path fill-rule="evenodd" clip-rule="evenodd" d="M60.7381 3.79395C59.6839 3.79395 58.7033 4.3828 58.7033 5.30211C58.7033 6.19103 59.5922 6.59357 60.057 6.70732L61.1102 6.95541C61.6476 7.08975 61.8324 7.36873 61.8324 7.62712C61.8324 8.05025 61.3784 8.32727 60.7895 8.32727C60.1801 8.32727 59.654 8.03015 59.3858 7.37609L58.5381 7.72763C58.8377 8.46357 59.5604 9.18726 60.7797 9.18726C61.9677 9.18726 62.8037 8.49495 62.8037 7.59623C62.8037 6.976 62.3811 6.35626 61.3784 6.11846L60.3463 5.88067C59.9433 5.788 59.6751 5.61247 59.6751 5.29182C59.6751 4.87849 60.1698 4.65393 60.7072 4.65393C61.2029 4.65393 61.6981 4.85054 61.8947 5.32565L62.7208 4.98489C62.411 4.20972 61.6162 3.79395 60.7381 3.79395Z" fill="#AAAAAA"/>
<path fill-rule="evenodd" clip-rule="evenodd" d="M68.0342 8.3057C67.538 8.3057 66.9257 8.05025 66.9257 7.51337C66.9257 7.04857 67.3728 6.54061 68.375 6.54061C69.181 6.54061 69.5699 6.84166 69.5699 6.84166C69.5699 7.66831 68.7883 8.3057 68.0342 8.3057ZM68.2407 3.79395C66.9698 3.79395 66.2539 4.53381 66.0779 4.99862L66.9458 5.37075C67.1218 4.89565 67.7342 4.67502 68.2612 4.67502C68.9741 4.67502 69.5699 5.11776 69.5699 5.92038V6.06551C69.3732 5.95176 68.8918 5.75515 68.2098 5.75515C67.0218 5.75515 65.9181 6.34596 65.9181 7.49278C65.9181 8.54644 66.8457 9.18726 67.8788 9.18726C68.7471 9.18726 69.2492 8.71951 69.5287 8.29589H69.5699V9.09361H70.4931V5.96353C70.4931 4.53773 69.4806 3.79395 68.2407 3.79395Z" fill="#AAAAAA"/>
<path fill-rule="evenodd" clip-rule="evenodd" d="M49.4594 8.3057C48.9637 8.3057 48.3508 8.05025 48.3508 7.51337C48.3508 7.04857 48.7985 6.54061 49.8007 6.54061C50.6062 6.54061 50.9955 6.84166 50.9955 6.84166C50.9955 7.66831 50.214 8.3057 49.4594 8.3057ZM49.6663 3.79395C48.3954 3.79395 47.6791 4.53381 47.5036 4.99862L48.3714 5.37075C48.5474 4.89565 49.1598 4.67502 49.6869 4.67502C50.3998 4.67502 50.9955 5.11776 50.9955 5.92038V6.06551C50.7989 5.95176 50.3169 5.75515 49.6349 5.75515C48.4469 5.75515 47.3438 6.34596 47.3438 7.49278C47.3438 8.54644 48.2714 9.18726 49.3045 9.18726C50.1723 9.18726 50.6749 8.71951 50.9538 8.29589H50.9955V9.09361H51.9187V5.96353C51.9187 4.53773 50.9063 3.79395 49.6663 3.79395Z" fill="#AAAAAA"/>
<path fill-rule="evenodd" clip-rule="evenodd" d="M75.9913 5.87478C76.1801 5.13688 76.7469 4.67502 77.4607 4.67502C78.5624 4.67502 78.94 5.43645 78.9713 5.87478H75.9913ZM77.4813 3.79395C75.9707 3.79395 74.9631 5.05402 74.9631 6.4906C74.9631 8.01985 76.0124 9.18726 77.5862 9.18726C78.7723 9.18726 79.5278 8.52584 79.8318 7.80265L78.9713 7.45159C78.6987 8.09242 78.132 8.3057 77.5652 8.3057C76.7679 8.3057 75.981 7.74087 75.9285 6.67201H79.9892C79.9892 6.67201 80 6.56268 80 6.4906C80 4.8579 79.0135 3.79395 77.4813 3.79395Z" fill="#AAAAAA"/>
<path fill-rule="evenodd" clip-rule="evenodd" d="M55.6782 3.79395C54.9643 3.79395 54.3039 4.20923 54.0269 4.68825H53.9842V3.87386H53.0468V9.09361H54.0269V6.29693C54.0269 5.49823 54.549 4.68825 55.4012 4.68825C56.1469 4.68825 56.6902 5.05059 56.6902 6.1371V9.09361H57.6703V5.98853C57.6703 4.69953 57.0099 3.79395 55.6782 3.79395Z" fill="#AAAAAA"/>
<path fill-rule="evenodd" clip-rule="evenodd" d="M73.0508 2.323H72.0707V3.87382H71.1543V4.77647H72.0707V7.5148C72.0707 8.58022 72.6566 9.18722 73.7539 9.18722C74.0838 9.18722 74.3182 9.14456 74.5423 9.04895L74.2015 8.2071C74.0628 8.27084 73.9348 8.29242 73.7539 8.29242C73.2959 8.29242 73.0508 8.02618 73.0508 7.43978V4.77647H74.329V3.87382H73.0508V2.323Z" fill="#AAAAAA"/>
<path fill-rule="evenodd" clip-rule="evenodd" d="M43.3017 1.34033H37.9941V2.34545H40.1515V9.08709H41.1443V2.34545H43.3017V1.34033Z" fill="#AAAAAA"/>
<path fill-rule="evenodd" clip-rule="evenodd" d="M4.47743 4.37543V5.58059H7.36187C7.27558 6.25867 7.04955 6.75388 6.70536 7.09807C6.28517 7.51777 5.62866 7.98061 4.47743 7.98061C2.70107 7.98061 1.31303 6.54942 1.31303 4.77355C1.31303 2.99768 2.70107 1.56649 4.47743 1.56649C5.43499 1.56649 6.13465 1.94304 6.65143 2.42746L7.50161 1.57679C6.78038 0.888404 5.82282 0.36084 4.47743 0.36084C2.04505 0.36084 0 2.34117 0 4.77355C0 7.20594 2.04505 9.18626 4.47743 9.18626C5.78997 9.18626 6.78038 8.75578 7.55554 7.94874C8.35179 7.152 8.59939 6.03264 8.59939 5.12853C8.59939 4.84906 8.57782 4.59067 8.53467 4.37543H4.47743Z" fill="#AAAAAA"/>
<path fill-rule="evenodd" clip-rule="evenodd" d="M12.2045 3.39746C10.6297 3.39746 9.34558 4.59527 9.34558 6.24562C9.34558 7.88519 10.6297 9.09378 12.2045 9.09378C13.7799 9.09378 15.0635 7.88519 15.0635 6.24562C15.0635 4.59527 13.7799 3.39746 12.2045 3.39746ZM12.2045 7.97148C11.3416 7.97148 10.5968 7.25956 10.5968 6.24562C10.5968 5.22089 11.3416 4.51927 12.2045 4.51927C13.0675 4.51927 13.8122 5.22089 13.8122 6.24562C13.8122 7.25956 13.0675 7.97148 12.2045 7.97148Z" fill="#AAAAAA"/>
<path fill-rule="evenodd" clip-rule="evenodd" d="M26.2174 4.03436H26.1743C25.8933 3.69949 25.354 3.39746 24.6744 3.39746C23.2506 3.39746 22.0106 4.63792 22.0106 6.24562C22.0106 7.84204 23.2506 9.09378 24.6744 9.09378C25.354 9.09378 25.8933 8.79176 26.1743 8.44658H26.2174V8.84471C26.2174 9.93416 25.6349 10.5166 24.696 10.5166C23.9301 10.5166 23.4555 9.96652 23.2614 9.50269L22.1719 9.95573C22.4847 10.7108 23.3153 11.6389 24.696 11.6389C26.1635 11.6389 27.4039 10.776 27.4039 8.67212V3.54406H26.2174V4.03436ZM24.7828 7.97148C23.9199 7.97148 23.2624 7.23799 23.2624 6.24562C23.2624 5.24246 23.9199 4.51927 24.7828 4.51927C25.6354 4.51927 26.3037 5.25325 26.3037 6.25641C26.3037 7.24878 25.6354 7.97148 24.7828 7.97148Z" fill="#AAAAAA"/>
<path fill-rule="evenodd" clip-rule="evenodd" d="M18.5786 3.39746C17.0037 3.39746 15.7196 4.59527 15.7196 6.24562C15.7196 7.88519 17.0037 9.09378 18.5786 9.09378C20.1539 9.09378 21.4375 7.88519 21.4375 6.24562C21.4375 4.59527 20.1539 3.39746 18.5786 3.39746ZM18.5786 7.97148C17.7156 7.97148 16.9713 7.25956 16.9713 6.24562C16.9713 5.22089 17.7156 4.51927 18.5786 4.51927C19.4415 4.51927 20.1862 5.22089 20.1862 6.24562C20.1862 7.25956 19.4415 7.97148 18.5786 7.97148Z" fill="#AAAAAA"/>
<path fill-rule="evenodd" clip-rule="evenodd" d="M28.3845 0.478516H29.6152V9.09262H28.3845V0.478516Z" fill="#AAAAAA"/>
<path fill-rule="evenodd" clip-rule="evenodd" d="M33.4175 7.97148C32.7811 7.97148 32.3281 7.68073 32.0363 7.10904L35.8445 5.5337L35.7151 5.2101C35.4778 4.57369 34.7551 3.39746 33.2773 3.39746C31.8098 3.39746 30.5909 4.55212 30.5909 6.24562C30.5909 7.84253 31.799 9.09378 33.4175 9.09378C34.7227 9.09378 35.4778 8.29557 35.7906 7.83125L34.8198 7.18406C34.4962 7.65916 34.0539 7.97148 33.4175 7.97148ZM33.3249 4.46485C33.8313 4.46485 34.2604 4.72275 34.4035 5.09292L31.8314 6.15933C31.8314 4.95858 32.6806 4.46485 33.3249 4.46485Z" fill="#AAAAAA"/>
</svg>
