<svg width="16" height="16" viewBox="0 0 16 16" fill="none" xmlns="http://www.w3.org/2000/svg">
<path fill-rule="evenodd" clip-rule="evenodd" d="M2.55177 2.12107C4.0329 0.758711 5.96892 0 7.9826 0V0.0110761C9.47483 0.0110761 10.9393 0.426429 12.2041 1.20729C13.4689 1.98815 14.4952 3.11237 15.1608 4.4415C15.8265 5.77617 16.1039 7.2659 15.9652 8.74455C15.8265 10.2287 15.2773 11.6409 14.3787 12.8261C13.48 14.0112 12.2651 14.925 10.8783 15.4622C9.48592 15.9994 7.97705 16.1378 6.51256 15.8609C5.04807 15.584 3.68897 14.9084 2.5906 13.906C1.49223 12.9036 0.693416 11.6133 0.288461 10.1789L3.36168 11.4471C3.47263 11.9954 3.78882 12.4827 4.23816 12.815C4.69304 13.1473 5.24777 13.3024 5.80805 13.247C6.36833 13.1916 6.88423 12.9313 7.26145 12.516C7.63867 12.1006 7.84946 11.5579 7.84946 10.9985V10.8933L10.5732 8.955H10.6342C11.2333 8.955 11.8158 8.77778 12.3151 8.4455C12.8143 8.11322 13.1971 7.64249 13.4301 7.09422C13.6575 6.54042 13.7185 5.93677 13.602 5.34974C13.4855 4.76271 13.1971 4.22552 12.7755 3.80463C12.3539 3.38374 11.8158 3.09576 11.2278 2.97946C10.6398 2.86316 10.0351 2.92408 9.48038 3.15114C8.92564 3.3782 8.45412 3.76586 8.12683 4.26429C7.79399 4.76271 7.61648 5.3442 7.61648 5.94231V5.97554L5.7082 8.73902H5.58061C5.12573 8.73902 4.68194 8.87747 4.30472 9.13222L0 7.35451C0.160872 5.34974 1.07063 3.48342 2.55177 2.12107ZM5.02033 12.1338L4.0329 11.7296C4.17714 12.0286 4.40458 12.2778 4.68749 12.4495C4.9704 12.6212 5.2977 12.7042 5.62499 12.6932C5.95783 12.6821 6.27402 12.5769 6.54584 12.3886C6.81766 12.2003 7.02846 11.9345 7.1505 11.6299C7.27254 11.3253 7.30583 10.9875 7.23926 10.6663C7.17269 10.345 7.01736 10.046 6.78438 9.80786C6.55139 9.56972 6.25738 9.40912 5.93564 9.33712C5.61389 9.26513 5.27551 9.29282 4.96486 9.40912L5.98002 9.83001C6.27957 9.96292 6.51256 10.2066 6.6346 10.5112C6.75664 10.8158 6.75109 11.1536 6.62905 11.4527C6.50146 11.7517 6.26293 11.9954 5.96337 12.1228C5.66382 12.2501 5.32543 12.2557 5.02033 12.1394V12.1338ZM12.2984 4.82363C12.5203 5.15591 12.6368 5.54357 12.6368 5.94231C12.6368 6.47396 12.4205 6.98346 12.0432 7.36005C11.666 7.73663 11.1557 7.94708 10.6231 7.94708C10.2237 7.94708 9.83541 7.83078 9.50257 7.60926C9.16973 7.38774 8.91455 7.07207 8.75922 6.70656C8.60945 6.34105 8.56507 5.93677 8.64273 5.54357C8.72039 5.15591 8.91455 4.79594 9.19192 4.5135C9.47483 4.23106 9.82986 4.04276 10.2237 3.96523C10.612 3.8877 11.017 3.92647 11.3887 4.08153C11.7548 4.2366 12.071 4.49134 12.2929 4.82363H12.2984ZM9.36943 5.10053C9.20301 5.34974 9.11425 5.64326 9.11425 5.94231C9.11425 6.34105 9.27513 6.72871 9.55804 7.01115C9.84095 7.29359 10.2237 7.45419 10.6287 7.45419C10.9282 7.45419 11.2222 7.36558 11.4719 7.19944C11.7215 7.0333 11.9157 6.79517 12.0266 6.5238C12.1431 6.2469 12.1708 5.94231 12.1098 5.64879C12.0488 5.35528 11.9046 5.08945 11.6938 4.87347C11.483 4.66302 11.2111 4.51904 10.9171 4.45812C10.6231 4.40274 10.318 4.43043 10.0407 4.54673C9.76329 4.66302 9.5303 4.85686 9.36388 5.10607L9.36943 5.10053Z" fill="#888888"/>
</svg>
