<svg width="16" height="16" viewBox="0 0 16 16" fill="none" xmlns="http://www.w3.org/2000/svg">
<path d="M10.5286 6.19495C10.7888 5.93485 11.2106 5.93502 11.4709 6.19495C11.7313 6.4553 11.7313 6.87796 11.4709 7.13831L8.66626 9.94299V14.1051C8.66626 14.4151 8.3683 14.6665 8.00024 14.6666C7.63205 14.6666 7.33325 14.4152 7.33325 14.1051V10.609L5.52856 8.80432C5.26845 8.54397 5.26832 8.12222 5.52856 7.86194C5.78884 7.60166 6.21058 7.60181 6.47095 7.86194L7.66626 9.05725L10.5286 6.19495ZM3.75708 3.09045C6.10016 0.747371 9.89927 0.747495 12.2424 3.09045C14.5856 5.4336 14.5856 9.23266 12.2424 11.5758C11.9821 11.8361 11.5604 11.8361 11.3 11.5758C11.0397 11.3155 11.0397 10.8938 11.3 10.6334C13.1224 8.81108 13.1222 5.85628 11.3 4.03381C9.4776 2.21137 6.52289 2.21137 4.70044 4.03381C2.87799 5.85626 2.87799 8.81098 4.70044 10.6334C4.96041 10.8937 4.96045 11.3155 4.70044 11.5758C4.44009 11.8362 4.01743 11.8362 3.75708 11.5758C1.41412 9.23265 1.414 5.43354 3.75708 3.09045Z" fill="#00CC7E"/>
</svg>
